<svg xmlns="http://www.w3.org/2000/svg" viewBox="0 0 410 404"><path fill="#41d1ff" d="M399.641 59.525 215.643 388.545c-5.74 10.036-20.546 10.09-26.35.102L10.504 59.63c-6.33-10.498 1.63-23.873 13.525-22.4l182.277 22.84a15 15 0 0 0 3.36-.004l176.279-22.774c11.874-1.533 19.9 12.01 13.54 22.497Z"/><path fill="#bd34fe" d="M292.63.322 156.6 27.648a7.5 7.5 0 0 0-6.005 8.88l36.995 209.493a7.5 7.5 0 0 0 12.95 4.052l31.58-33.678a7.5 7.5 0 0 1 12.299 2.695l41.124 104.394c4.073 10.34 19.234 9.12 21.196-1.685L345.795 8.24C347.6-2.065 300.461-1.236 292.629.322Z"/><path fill="#ffa800" d="M202.967 80.688 83.272 58.678c-11.856-2.173-19.99 11.234-13.624 21.724l96.42 158.756a7.5 7.5 0 0 0 13.664-.979l24.551-58.977a7.5 7.5 0 0 1 14.056-.252l58.09 128.477c4.512 9.984 18.843 8.808 20.96-1.748L351.47 35.957c2.314-11.53-14.19-18.11-20.876-8.84l-101.46 144.47c-5.141 7.327-16.6 5.09-18.171-3.643l-7.413-86.023a7.5 7.5 0 0 0-6.582-6.235Z"/></svg>
